<?xml version="1.0" standalone="no"?>
<!DOCTYPE svg PUBLIC "-//W3C//DTD SVG 1.1//EN" "http://www.w3.org/Graphics/SVG/1.1/DTD/svg11.dtd" >
<!--
2013-9-30: Created.
-->
<svg>
<metadata>
Created by iconfont
</metadata>
<defs>

<font id="iconfont" horiz-adv-x="1024" >
  <font-face
    font-family="iconfont"
    font-weight="500"
    font-stretch="normal"
    units-per-em="1024"
    ascent="896"
    descent="-128"
  />
    <missing-glyph />
    
    <glyph glyph-name="gengduo" unicode="&#58934;" d="M170.666667 469.333333c-46.933333 0-85.333333-38.4-85.333333-85.333333 0-46.933333 38.4-85.333333 85.333333-85.333333s85.333333 38.4 85.333333 85.333333C256 430.933333 217.6 469.333333 170.666667 469.333333zM853.333333 469.333333c-46.933333 0-85.333333-38.4-85.333333-85.333333 0-46.933333 38.4-85.333333 85.333333-85.333333s85.333333 38.4 85.333333 85.333333C938.666667 430.933333 900.266667 469.333333 853.333333 469.333333zM512 469.333333c-46.933333 0-85.333333-38.4-85.333333-85.333333 0-46.933333 38.4-85.333333 85.333333-85.333333s85.333333 38.4 85.333333 85.333333C597.333333 430.933333 558.933333 469.333333 512 469.333333z"  horiz-adv-x="1024" />

    
    <glyph glyph-name="sousuo" unicode="&#58962;" d="M947.480232 1.729643 710.948121 237.074719c51.28299 62.794162 82.046644 143.002948 82.046644 230.40046 0 201.309912-163.193803 364.504738-364.505761 364.504738S63.981197 668.785092 63.981197 467.47518s163.193803-364.504738 364.505761-364.504738c86.105077 0 165.233252 29.859052 227.603765 79.782068l236.989529-235.799424c7.537673-7.475252 17.337877-11.181667 27.199479-11.181667 9.925047 0 19.787672 3.768837 27.387767 11.369955C962.682469-37.782256 962.619024-13.345704 947.480232 1.729643zM141.17123 467.47518c0 158.426219 128.888486 287.315728 287.315728 287.315728s287.315728-128.890532 287.315728-287.315728S586.916247 180.158429 428.487981 180.158429 141.17123 309.048961 141.17123 467.47518z"  horiz-adv-x="1024" />

    
    <glyph glyph-name="fanhui" unicode="&#58888;" d="M747.4176 896 276.6848 421.922133 276.616533 422.024533 238.933333 384.1024 239.035733 384.034133 238.933333 383.931733 276.616533 345.941333 276.718933 346.043733 747.4176-128 785.066667-90.043733 314.368 384.034133 785.066667 858.077867Z"  horiz-adv-x="1024" />

    
    <glyph glyph-name="xia" unicode="&#58932;" d="M902.488017 603.168652 510.795057 209.28684l-391.68068 393.880789c-10.214642 10.270924-25.719778 11.294231-34.666544 2.334161-8.925277-9.002025-7.902994-24.607444 2.322905-34.877345l403.651316-405.930219c5.824659-5.847172 13.381775-8.601912 20.463054-8.270361 7.03523-0.267083 14.525831 2.468215 20.306488 8.314363l403.662573 405.886217c10.180873 10.269901 11.248182 25.919323 2.312672 34.877345C928.228261 614.462882 912.712893 613.439576 902.488017 603.168652z"  horiz-adv-x="1024" />

    
    <glyph glyph-name="shoucang" unicode="&#59005;" d="M669.37 654.374c80.204 0 148.921-59.161 159.833-137.619 7.603-54.509-7.565-100.429-46.297-140.41-81.504-84.108-227.693-230.591-256.173-259.103-2.925-2.932-6.26-3.546-8.531-3.546-2.279 0-5.607 0.614-8.519 3.546-64.096 64.345-180.454 181.344-247.731 249.152-30.22 30.444-48 63.142-54.349 99.916-11.366 65.818 19.879 132.525 77.754 165.99 24.864 14.388 52.832 21.991 80.89 21.991 40.902 0 80.313-15.897 110.956-44.774 13.517-12.743 26.944-16.615 38.279-16.615 14.572 0 25.683 6.407 29.03 8.576 7.168 4.672 14.08 9.485 20.915 14.24 12.32 8.55 23.917 16.634 34.931 22.176 21.677 10.932 44.91 16.48 69.012 16.48m0 53.14c-31.053 0-62.637-6.99-92.621-22.1-21.03-10.604-39.898-25.612-60.915-39.334 0 0-1.37 1.069-2.618 2.246-41.376 38.99-93.875 59.11-146.976 59.11-36.576 0-73.44-9.548-107.149-29.042-77.446-44.794-118.662-133.088-103.443-221.19 8.742-50.625 33.389-92.468 69.011-128.398 67.303-67.808 183.687-184.844 247.789-249.222 12.66-12.691 29.197-19.027 45.747-19.027 16.538 0 33.05 6.31 45.69 18.97 65.824 65.887 186.899 187.596 256.742 259.654 49.274 50.854 70.74 113.645 60.82 184.94-15.188 109.07-110.785 183.393-212.077 183.393z"  horiz-adv-x="1024" />

    
    <glyph glyph-name="shoucang1" unicode="&#58899;" d="M214.60224-101.832a30.744 30.744 0 0 0-18.104 5.88 30.76 30.76 0 0 0-12.192 30.088l54.04 313.832L9.36224 470.232a30.736 30.736 0 0 0 17 52.48l316.576 45.84L484.49024 854.136c10.328 20.928 44.736 20.928 55.064 0L681.14624 568.552l316.56-45.84a30.736 30.736 0 0 0 17-52.48L785.71424 247.968l54.072-313.832a30.8 30.8 0 0 0-12.184-30.088 30.904 30.904 0 0 0-32.368-2.376L512.02624 49.904 228.85824-98.32a30.864 30.864 0 0 0-14.256-3.512zM512.02624 115.36c4.896 0 9.792-1.168 14.264-3.512l242.344-126.84-46.272 268.512a30.688 30.688 0 0 0 8.888 27.288l195.784 190.016-270.688 39.216a30.672 30.672 0 0 0-23.12 16.752L512.02624 771.256 390.85024 526.792a30.672 30.672 0 0 0-23.12-16.752l-270.704-39.208 195.784-190.016a30.728 30.728 0 0 0 8.888-27.288l-46.232-268.52L497.76224 111.84A30.712 30.712 0 0 0 512.02624 115.36z"  horiz-adv-x="1024" />

    
    <glyph glyph-name="message" unicode="&#58880;" d="M511.989 0.003c-32.747 0-85.335 0-85.335 0l-234.65-128.003v234.65c-116.973 82.114-192.004 199.961-192.004 341.362-0 247.408 229.231 447.988 511.989 447.988s511.989-200.58 511.989-447.988c0.021-247.45-229.21-448.009-511.989-448.009v0zM511.989 832.020c-247.408 0-448.031-171.929-448.031-384.008 0-130.136 76.524-250.544 192.047-319.985v-142.232l170.628 78.21c0 0 47.98 0 85.335 0 247.408 0 448.031 171.929 448.031 384.008 0.021 212.1-200.602 384.008-448.009 384.008v0zM768.016 384.011c-35.371 0-64.023 28.651-64.023 64.023s28.651 64.023 64.023 64.023c35.329 0 63.98-28.651 63.98-64.023s-28.651-64.023-63.98-64.023v0zM511.989 384.011c-35.371 0-64.023 28.651-64.023 64.023s28.651 64.023 64.023 64.023c35.371 0 64.023-28.651 64.023-64.023s-28.651-64.023-64.023-64.023v0zM255.984 384.011c-35.329 0-63.98 28.651-63.98 64.001s28.651 64.023 63.98 64.023c35.371 0 64.023-28.651 64.023-64.023s-28.673-64.001-64.023-64.001v0z"  horiz-adv-x="1024" />

    
    <glyph glyph-name="fenxiang1" unicode="&#58895;" d="M844.214857 405.625905c-57.295238-57.027048-104.17981-8.704-65.584762 33.377524l128.999619 200.996571c-202.020571 3.779048-321.438476-71.533714-372.370285-139.654095-37.083429-49.761524-59.343238-165.814857-66.852572-196.534857-6.290286-25.819429-27.111619-42.983619-52.906667-39.107048-27.37981 6.680381-42.349714 48.64-35.669333 75.946667 1.29219 5.290667 28.574476 129.901714 85.625905 206.238476 50.127238 67.193905 149.26019 153.136762 377.685333 164.815238L692.419048 804.937143c-23.405714 15.701333-37.61981 41.496381-12.653715 72.508952 15.798857 23.186286 45.763048 5.290667 69.046857-10.361905l251.148191-158.549333a50.907429 50.907429 0 0 0 13.726476-70.631619l-169.472-232.277333z m62.464 234.179047c-2.169905-0.390095-6.875429-1.26781 0 0z m0.950857 0.195048l-0.950857-0.195048a21.089524 21.089524 0 0 1 0.950857 0.195048zM512 830.610286C265.728 830.610286 65.389714 630.272 65.389714 384S265.728-62.610286 512-62.610286 958.610286 137.728 958.610286 384a32.670476 32.670476 0 0 0 65.365333 0c0-282.307048-229.668571-511.975619-511.975619-511.975619C229.692952-127.975619 0.024381 101.692952 0.024381 384 0.024381 666.307048 229.692952 895.975619 512 895.975619a32.670476 32.670476 0 1 0 0-65.365333z"  horiz-adv-x="1024" />

    
    <glyph glyph-name="icon-test" unicode="&#59279;" d="M721.21344 483.80928c-64.79872 0-117.33504-51.41504-117.33504-114.8416s52.5312-114.8416 117.33504-114.8416c2.73408 0 5.44768 0.09216 8.13568 0.27136l-58.55744-96.66048a25.3952 25.3952 0 0 1 43.89888-25.51808l111.56992 184.17152c1.39264 2.39616 2.35008 4.93056 2.89792 7.5008a112.45056 112.45056 0 0 1 9.38496 45.07648c0.00512 63.42656-52.52608 114.8416-117.32992 114.8416z m0-181.12512c-37.4016 0-67.72224 29.67552-67.72224 66.28352s30.32064 66.28352 67.72224 66.28352 67.72736-29.67552 67.72736-66.28352-30.32064-66.28352-67.72736-66.28352zM355.42016 655.6672c-93.33248 0-168.99072-74.05056-168.99072-165.4016s75.65824-165.4016 168.99072-165.4016h0.81408l-99.6864-147.31776a36.93568 36.93568 0 0 1 60.7232-42.05056l170.30144 251.66336c23.05536 28.27264 36.8384 64.11264 36.8384 103.10144 0 91.35104-75.65824 165.40672-168.99072 165.40672z m0-251.17184c-48.39936 0-87.6288 38.4-87.6288 85.77024 0 47.37024 39.23456 85.77024 87.6288 85.77024 48.39936 0 87.6288-38.4 87.6288-85.77024 0-47.37024-39.22944-85.77024-87.6288-85.77024zM495.56992 156.81024a38.02624 37.21728 0 1 1 76.05248 0 38.02624 37.21728 0 1 1-76.05248 0Z"  horiz-adv-x="1024" />

    
    <glyph glyph-name="lingquan" unicode="&#58907;" d="M879.49312 440.491008c-15.727616 0-31.45728 5.98016-43.416576 17.94048-23.92064 23.92064-23.92064 62.91456 0 86.8352 23.919616 23.92064 62.913536 23.92064 86.8352 0 11.631616-11.55072 17.94048-27.0336 17.94048-43.4176s-6.388736-31.78496-17.94048-43.4176c-11.96032-11.961344-27.689984-17.94048-43.418624-17.94048z m0 82.082816c-5.323776 0-10.648576-2.048-14.662656-6.06208-8.11008-8.11008-8.11008-21.21728 0-29.32736 8.11008-8.11008 21.21728-8.11008 29.32736 0 8.11008 8.11008 8.11008 21.21728 0 29.32736a20.717568 20.717568 0 0 1-14.664704 6.06208zM666.09152 29.989888c-17.85856 0-35.71712 6.79936-49.31584 20.39808l-192.9216 192.920576c-13.18912 13.190144-20.39808 30.63808-20.39808 49.31584s7.29088 36.12672 20.39808 49.31584l301.95712 301.95712c7.45472 7.45472 17.69472 11.22304 28.263424 10.24l223.06816-20.0704c17.2032-1.55648 30.72-15.1552 32.19456-32.44032l18.26816-221.346816c0.8192-10.40384-2.868224-20.64384-10.32192-28.01664l-301.8752-301.8752c-13.599744-13.59872-31.458304-20.39808-49.316864-20.39808z m86.75328 583.433216L452.608 313.187328c-5.48864-5.487616-8.51968-12.778496-8.51968-20.56192 0-7.7824 3.03104-15.07328 8.51968-20.56192l193.00352-193.002496c11.30496-11.30496 29.73696-11.30496 41.12384 0l300.2368 300.31872-17.77664 214.628352-216.35072 19.41504z"  horiz-adv-x="1433" />

    
    <glyph glyph-name="wode" unicode="&#58881;" d="M363.865 494.934a149.158 149.158 0 1 1 298.316 0 149.158 149.158 0 1 1-298.316 0zM513.023 830.54C265.89 830.54 65.55 630.2 65.55 383.066S265.889-64.41 513.023-64.41s447.475 200.341 447.475 447.475S760.156 830.54 513.023 830.54zM785.226 76.21c4.884 20.698 7.468 42.284 7.468 64.474 0 100.884-53.417 189.293-133.509 238.485-34.152-43.063-86.932-70.682-146.162-70.682s-112.01 27.62-146.163 70.68c-80.093-49.19-133.508-137.599-133.508-238.483 0-22.189 2.584-43.776 7.468-64.474-84.644 75.14-137.982 184.77-137.982 306.856 0 226.538 183.646 410.185 410.185 410.185s410.184-183.646 410.184-410.184c0-122.087-53.336-231.717-137.981-306.857z"  horiz-adv-x="1024" />

    
    <glyph glyph-name="fenlei" unicode="&#59008;" d="M442.7 818.5H108.6c-15.5 0-28.1-12.6-28.1-28.1v-334.1c0-15.5 12.6-28.1 28.1-28.1h334.1c15.5 0 28.1 12.6 28.1 28.1V790.4c0 15.5-12.6 28.1-28.1 28.1zM915.6-48H581.5c-15.5 0-28.1 12.6-28.1 28.1V314.2c0 15.5 12.6 28.1 28.1 28.1h334.1c15.5 0 28.1-12.6 28.1-28.1v-334.1c0-15.4-12.6-28.1-28.1-28.1z m-316.8 45.4h299.5V297H598.8v-299.6z m-156.1 345H108.6c-15.5 0-28.1-12.6-28.1-28.1v-334.1c0-15.5 12.6-28.1 28.1-28.1h334.1c15.5 0 28.1 12.6 28.1 28.1V314.3c0 15.5-12.6 28.1-28.1 28.1zM915.6 818.5H581.5c-15.5 0-28.1-12.6-28.1-28.1v-334.1c0-15.5 12.6-28.1 28.1-28.1h334.1c15.5 0 28.1 12.6 28.1 28.1V790.4c0 15.5-12.6 28.1-28.1 28.1z"  horiz-adv-x="1024" />

    
    <glyph glyph-name="fenxiang" unicode="&#58922;" d="M798.535 541c71.426 0 129.535 58.109 129.535 129.535 0 71.426-58.109 129.536-129.535 129.536S669 741.961 669 670.535c0-6.097 0.433-12.093 1.252-17.968L331.159 522.342c-23.491 33.093-62.113 54.729-105.695 54.729-71.426 0-129.536-58.109-129.536-129.536C95.929 376.109 154.039 318 225.465 318c33.165 0 63.453 12.534 86.392 33.106l304.671-206.174c-5.548-14.412-8.598-30.054-8.598-46.396C607.93 27.109 666.039-31 737.465-31S867 27.109 867 98.535 808.891 228.07 737.465 228.07c-33.46 0-63.997-12.753-87.007-33.652L346.11 400.374c5.736 14.622 8.89 30.53 8.89 47.162 0 6.504-0.488 12.896-1.417 19.146l338.578 130.027C715.581 563.065 754.527 541 798.535 541z m-573.07-163c-38.342 0-69.536 31.193-69.536 69.535s31.193 69.536 69.536 69.536c38.342 0 69.535-31.193 69.535-69.536C295 409.193 263.807 378 225.465 378z m512-209.93c38.342 0 69.535-31.193 69.535-69.535S775.807 29 737.465 29s-69.535 31.193-69.535 69.535 31.193 69.535 69.535 69.535z m61.07 572.001c38.342 0 69.535-31.193 69.535-69.536 0-38.342-31.193-69.535-69.535-69.535S729 632.193 729 670.535s31.193 69.536 69.535 69.536z"  horiz-adv-x="1024" />

    
    <glyph glyph-name="wodezuji" unicode="&#59006;" d="M561.30714248 748.11428584m-16.07142832 0a16.07142832 16.07142832 0 1 1 32.14285752 0 16.07142832 16.07142832 0 1 1-32.14285752 0ZM273.78928584 671.95178584m-16.07142832 0a16.07142832 16.07142832 0 1 1 32.14285664 0 16.07142832 16.07142832 0 1 1-32.14285664 0ZM819.20535752 259.10892832m-16.0714292 0a16.07142832 16.07142832 0 1 1 32.14285752 0 16.07142832 16.07142832 0 1 1-32.14285752 0ZM562.54464248 182.56071415999997h-41.15892832v26.37321416c-2.90892833-0.09642832-5.76964248-0.36964248-8.71071416-0.36964248-132.78214248 0-240.4125 92.94107168-240.4125 207.59464248 0 114.6375 107.63035752 207.57857168 240.4125 207.57857168C645.425 623.72142832 753.07142832 530.78035752 753.07142832 416.14285752c0-42.15535752-14.64107168-81.32142832-39.64821416-114.075l26.90357168-17.56607168C768.62857167 322.30178584 785.21428584 367.51071416 785.21428584 416.14285752c0 132.39642832-122.04642832 239.7375-272.53928584 239.7375-150.525 0-272.53928584-107.325-272.53928584-239.7375s122.01428584-239.7375 272.53928584-239.7375c20.66785752 0 34.2 2.20178584 53.56607168 6.04285664l-3.6964292 0.1125zM727.30892832 293.45357168m-16.07142832 0a16.07142832 16.07142832 0 1 1 32.14285752 0 16.07142832 16.07142832 0 1 1-32.14285752 0ZM875.50357167 217.08214248000002l-43.18392919 51.58928584-24.44464248-20.89285664 42.975-51.33214336c39.87321416-47.63571416 33.58928584-118.59107168-14.0625-158.46428584s-118.59107168-33.58928584-158.46428584 14.0625l-109.25357168 130.51607168-0.03214248 0.03214336-7.47321416 8.95178496a64.36607168 64.36607168 0 0 1-9.3375 7.65h-38.97321417l140.4-167.7535708c51.26785752-61.26428584 142.48928584-69.34821416 203.76964249-18.08035752 61.26428584 51.23571416 69.36428584 142.47321416 18.08035751 203.72142832zM519.81071416 176.74285752000003c7.10357168 0 13.51607168-2.8125 18.30535751-7.32857168l0.03214249 0.03214248 0.14464336-0.17678584c1.47857167-1.39821416 2.79642832-2.95714248 3.90535664-4.66071416l31.725-37.9125c3.06964248 7.13571416 4.82142832 15.01071416 4.82142832 23.2714292a58.95 58.95 0 0 1-58.93392832 58.91785664 58.6125 58.6125 0 0 1-50.67321416-29.33035664c9.72321416-1.26964248 30.10178584-3.43928584 50.67321416-2.8125zM176.50892832 635.11607168a64.28571416 64.28571416 0 1 1 0-128.5714292 64.28571416 64.28571416 0 0 1 0 128.5714292z m0-96.42857168a32.14285752 32.14285752 0 1 0 0.01607168 64.30178584 32.14285752 32.14285752 0 0 0-0.01607168-64.30178584zM333.59107167 739.59642832l22.66071417-24.33214248a254.3625 254.3625 0 0 0 36.72321416 15.49285664l-7.21607168 31.40357168a286.71428584 286.71428584 0 0 1-52.16785664-22.56428583zM475.18035752 776.27142832a307.76785752 307.76785752 0 0 1-58.29107168-6.07499999l7.2-31.275a276.46071416 276.46071416 0 0 0 41.07857168 4.70892919l10.0125 32.6410708zM498.725 743.4375c19.9125-1.54285752 39.10178584-5.20714248 57.34285752-10.63928584l13.35535664 29.44285752a308.25 308.25 0 0 1-61.11964248 12.43928584l-9.57857168-31.24285752zM305.9 722.19107167a259.60178584 259.60178584 0 0 1-45.43392832-41.35178583l27.16071416-17.56607168a229.09821416 229.09821416 0 0 0 40.29107168 35.26071416l-22.01785752 23.65714335z"  horiz-adv-x="1024" />

    
    <glyph glyph-name="msnui-more" unicode="&#58882;" d="M406.318 41.00199999999995c0-57.562 46.646-104.22799999 104.228-104.228 57.56300001 0 104.209 46.666 104.209 104.228s-46.646 104.22799999-104.209 104.22800001c-57.58199999 0-104.228-46.667-104.228-104.22800001zM406.318 373.43100000000004c0-57.562 46.646-104.22799999 104.228-104.228 57.56300001 0 104.209 46.667 104.209 104.228s-46.646 104.22799999-104.209 104.228c-57.58199999 0-104.228-46.666-104.228-104.228zM406.318 726.638c0-57.56300001 46.646-104.23 104.228-104.23 57.56300001 0 104.209 46.667 104.209 104.23s-46.646 104.22799999-104.209 104.228c-57.582-0.001-104.228-46.666-104.228-104.228z"  horiz-adv-x="1024" />

    
    <glyph glyph-name="shouye" unicode="&#59013;" d="M868.864 545.792l-320 219.648c-10.752 7.68-23.552 11.264-36.864 11.264a66.56 66.56 0 0 1-36.864-11.264L155.136 545.792c-17.92-12.288-28.16-32.256-28.16-53.76V56.32c0-35.84 29.184-65.024 65.024-65.024h640c35.84 0 65.024 29.184 65.024 65.024V492.544c0 20.992-10.24 41.472-28.16 53.248z m-222.208-504.32H377.344v175.104c0 74.24 60.416 134.656 134.656 134.656s134.656-60.416 134.656-134.656v-175.104z m200.192 14.848c0-8.192-6.656-14.848-14.848-14.848h-134.656v175.104c0 101.888-82.944 185.344-185.344 185.344s-185.344-82.944-185.344-185.344v-175.104H192c-8.192 0-14.848 6.656-14.848 14.848V492.544c0 5.12 2.56 9.728 6.656 12.288l320 219.648c2.56 1.536 5.632 2.56 8.192 2.56s6.144-1.024 8.192-2.56l320-219.648c4.096-2.56 6.656-7.168 6.656-12.288V56.32z"  horiz-adv-x="1024" />

    
    <glyph glyph-name="shengjiangxu" unicode="&#58927;" d="M441.344 797.013333c-13.994667 5.802667-30.378667 2.730667-40.96-8.192l-208.213333-208.213333c-9.557333-9.557333-13.653333-23.552-9.898667-36.522667 3.413333-12.970667 13.653333-23.210667 26.965333-26.965333 12.970667-3.413333 26.965333 0.341333 36.522667 9.898667l143.36 144.042666v-661.845333c-0.341333-13.653333 6.826667-26.282667 18.773333-33.450667 11.946667-6.826667 26.282667-6.826667 38.229334 0 11.946667 6.826667 18.773333 19.797333 18.773333 33.450667V762.197333c-0.341333 15.36-9.557333 29.013333-23.552 34.816m459.093333-552.96c-14.677333 14.677333-38.570667 14.677333-53.248 0L703.146667 100.352V762.197333c-0.341333 20.48-17.066667 36.864-37.546667 36.864s-37.205333-16.384-37.546667-36.864v-752.64c0-15.36 9.216-29.013333 23.210667-34.816 13.994667-5.802667 30.378667-2.730667 40.96 8.192l208.213333 208.213334c14.677333 14.336 14.677333 38.229333 0 52.906666"  horiz-adv-x="1024" />

    
    <glyph glyph-name="iconyoujiantounorm" unicode="&#58889;" d="M877.714286 381.805714L464.457143 795.794286l51.2 51.2 413.988571-413.257143 51.931429-51.931429-465.92-465.188571-51.2 51.2L877.714286 381.805714z"  horiz-adv-x="1024" />

    
    <glyph glyph-name="shezhi" unicode="&#58965;" d="M848.7 379.6c0 41.9 18.1 79.5 47 105.6 13.4 12.1 16.9 32.1 7.7 47.9L839 645.3c-8.9 15.4-27 22.4-43.7 17.1-13.8-4.4-28.6-6.8-44-6.8-68.5 0-125.8 48.2-139.7 112.4-3.8 17.5-19 29.9-36.5 29.9H447.4c-17.5 0-32.7-12.4-36.5-29.9-13.7-64.2-71.1-112.4-139.7-112.4-15.3 0-30 2.4-44 6.8-16.7 5.4-34.8-1.7-43.7-17.1L119.3 533c-9.1-15.8-5.7-35.9 7.7-47.9 28.9-26 47-63.6 47-105.6s-18.1-79.5-47-105.6c-13.4-12.1-16.9-32.1-7.7-47.9l64.4-112.3c8.9-15.4 27-22.4 43.7-17.1 13.8 4.4 28.6 6.8 44 6.8 68.5 0 125.8-48.2 139.7-112.4 3.8-17.5 19-29.9 36.5-29.9h127.9c17.5 0 32.7 12.4 36.5 29.9 13.7 64.2 71.1 112.4 139.7 112.4 15.3 0 30-2.4 44-6.8 16.7-5.4 34.8 1.7 43.7 17.1L903.7 226c9.1 15.8 5.7 35.9-7.7 47.9-29.1 26.2-47.3 63.9-47.3 105.7z m-52-221.4c-14.8 3.5-30 5.2-45.2 5.2-27 0-53.1-5.3-77.9-15.7-24-10.1-45.4-24.6-63.9-43-18.6-18.5-33.2-40.2-43.5-64.2-2.7-6.3-5.1-12.8-7.1-19.5h-95.4c-2 6.6-4.4 13.1-7.1 19.5-10.2 24.1-24.9 45.7-43.5 64.2-18.5 18.4-40 32.8-63.9 43-24.8 10.4-51 15.7-77.9 15.7-15.2 0-30.4-1.8-45.2-5.2l-47.9 83.3c9.8 10.6 18.6 22.1 25.9 34.6 18.5 31.2 28.3 67 28.3 103.4s-9.8 72.2-28.3 103.4c-7.4 12.4-16.1 24.1-25.9 34.6L226 601c14.8-3.5 30-5.2 45.2-5.2 27 0 53.1 5.3 77.9 15.7 24 10.1 45.4 24.6 63.9 43 18.6 18.5 33.2 40.2 43.5 64.2 2.7 6.3 5.1 12.8 7.1 19.5H559c2-6.6 4.4-13.1 7.1-19.5 10.2-24.1 24.9-45.7 43.5-64.2 18.5-18.4 40-32.8 63.9-43 24.8-10.4 51-15.7 77.9-15.7 15.2 0 30.4 1.8 45.2 5.2l47.8-83.3c-9.8-10.6-18.6-22.1-25.9-34.6-18.5-31.2-28.3-67-28.3-103.4s9.8-72.2 28.3-103.4c7.4-12.4 16.1-24.1 25.9-34.6l-47.7-83.5zM511.4 558.9c-96.9 0-175.3-80.2-175.3-179.3s78.5-179.3 175.3-179.3 175.3 80.2 175.3 179.3-78.5 179.3-175.3 179.3z m82.5-263.8c-22-22.5-51.5-35-82.8-35s-60.5 12.4-82.8 35c-22 22.5-34.3 52.5-34.3 84.5s12.1 61.9 34.3 84.5c22 22.5 51.5 35 82.8 35s60.5-12.4 82.8-35c22-22.5 34.3-52.5 34.3-84.5s-12-61.9-34.3-84.5z"  horiz-adv-x="1024" />

    
    <glyph glyph-name="eye-show" unicode="&#58883;" d="M512 768a528.512 528.512 0 0 1-512-384 533.312 533.312 0 0 1 1024 0 528.896 528.896 0 0 1-512 384z m0-691.2A442.176 442.176 0 0 0 85.312 384a449.92 449.92 0 0 0 853.376 0A441.6 441.6 0 0 0 512 76.8zM512 192a192 192 0 1 0 56.576 375.552 96 96 0 1 1 127.04-126.976A192 192 0 0 0 512 192z"  horiz-adv-x="1024" />

    
    <glyph glyph-name="wodedingdan" unicode="&#58933;" d="M687.24 533.58a27.77 27.77 0 0 1-27.78 27.77H281.29a27.77 27.77 0 0 1 0-55.54h378.17a27.77 27.77 0 0 1 27.78 27.77zM349.62 9.09h-160a15.78 15.78 0 0 0-15.76 15.76v718.3a15.78 15.78 0 0 0 15.76 15.76h560.8a15.78 15.78 0 0 0 15.76-15.76v-331a27.78 27.78 0 1 1 55.55 0v331a71.39 71.39 0 0 1-71.31 71.31H189.64a71.38 71.38 0 0 1-71.3-71.31v-718.3a71.38 71.38 0 0 1 71.3-71.31h160a27.78 27.78 0 0 1 0 55.55zM281.29 360.3a27.78 27.78 0 0 1 0-55.55h254.36a27.78 27.78 0 0 1 0 55.55zM858.25 325.21L564.79 31.74a15.78 15.78 0 0 0-22.3 0L428.92 145.31A27.77 27.77 0 1 1 389.65 106l113.57-113.54a71.32 71.32 0 0 1 100.84 0l293.47 293.47a27.78 27.78 0 0 1-39.28 39.28zM794 107a27.78 27.78 0 0 1-27.77-27.77v-54.42a15.78 15.78 0 0 0-15.76-15.76 27.78 27.78 0 0 1 0-55.55 71.39 71.39 0 0 1 71.31 71.31v54.46A27.78 27.78 0 0 1 794 107z"  horiz-adv-x="1024" />

    
    <glyph glyph-name="liebiao" unicode="&#58885;" d="M1024 896h-384M128 554.666667h768c21.333333 0 42.666667 21.333333 42.666667 42.666666s-21.333333 42.666667-42.666667 42.666667H128c-21.333333 0-42.666667-21.333333-42.666667-42.666667s21.333333-42.666667 42.666667-42.666666zM896 426.666667H128c-21.333333 0-42.666667-21.333333-42.666667-42.666667s21.333333-42.666667 42.666667-42.666667h768c21.333333 0 42.666667 21.333333 42.666667 42.666667s-21.333333 42.666667-42.666667 42.666667zM896 213.333333H128c-21.333333 0-42.666667-21.333333-42.666667-42.666666s21.333333-42.666667 42.666667-42.666667h768c21.333333 0 42.666667 21.333333 42.666667 42.666667s-21.333333 42.666667-42.666667 42.666666z"  horiz-adv-x="1024" />

    
    <glyph glyph-name="eyes-hide" unicode="&#58913;" d="M979.2 531.2c9.6 16 6.4 35.2-6.4 48-16 12.8-35.2 6.4-48-6.4-3.2-3.2-188.8-220.8-409.6-220.8-214.4 0-409.6 220.8-412.8 224-16 12.8-38.4 12.8-51.2 0s-16-32-3.2-48c3.2-6.4 44.8-51.2 108.8-102.4l-86.4-89.6c-16-16-12.8-35.2 3.2-48 3.2-6.4 12.8-9.6 19.2-9.6s16 3.2 25.6 9.6l92.8 96c44.8-32 96-57.6 153.6-80l-35.2-118.4c-6.4-19.2 6.4-35.2 25.6-41.6h9.6c16 0 28.8 9.6 32 25.6l38.4 121.6c25.6-6.4 54.4-6.4 83.2-6.4 28.8 0 57.6 3.2 83.2 6.4l35.2-118.4c3.2-16 19.2-25.6 32-25.6 3.2 0 6.4 0 6.4 3.2 19.2 6.4 28.8 25.6 25.6 41.6l-35.2 118.4c57.6 19.2 108.8 48 153.6 80l92.8-92.8c0-9.6 6.4-9.6 16-9.6s16 3.2 25.6 9.6c16 16 16 35.2 3.2 48l-86.4 89.6c67.2 48 108.8 96 108.8 96z"  horiz-adv-x="1024" />

    
    <glyph glyph-name="icondetailsrights" unicode="&#58935;" d="M512 849.5C254.9 849.5 46.5 641.1 46.5 384S254.9-81.5 512-81.5 977.5 126.9 977.5 384 769.1 849.5 512 849.5z m0-837.9c-205.3 0-372.4 167-372.4 372.4s167 372.4 372.4 372.4 372.4-167 372.4-372.4S717.3 11.6 512 11.6zM668.6 537.3L430.2 298.9l-98.7 98.7c-18.2 18.2-47.6 18.2-65.8 0-18.2-18.2-18.2-47.6 0-65.8l131.7-131.7c18.2-18.2 47.6-18.2 65.8 0 1.4 1.4 2.6 2.8 3.7 4.2 1.5 1.2 2.9 2.4 4.2 3.7l263.3 263.3c18.2 18.2 18.2 47.6 0 65.8-18.2 18.3-47.6 18.3-65.8 0.2z"  horiz-adv-x="1024" />

    
    <glyph glyph-name="zhanghao" unicode="&#58916;" d="M719.125-61.386H303.012c-61.286 0-110.967 50.097-110.967 111.923V722.086c0 61.826 49.68 111.925 110.967 111.925h416.113c61.287 0 110.967-50.099 110.967-111.925v-671.549c0-61.826-49.68-111.923-110.967-111.923zM774.6 722.086c0 30.896-24.84 55.963-55.475 55.963H303.012c-30.634 0-55.483-25.067-55.483-55.963v-27.981H774.6v27.981z m0-83.944H247.53v-446.829H774.6v446.83z m0-502.789H247.53v-84.816c0-30.912 24.848-55.961 55.482-55.961h416.113c30.636 0 55.475 25.05 55.475 55.961v84.816zM511.071 22.556c-22.973 0-41.601 18.79-41.601 41.972 0 23.183 18.628 41.975 41.601 41.975 22.972 0 41.598-18.791 41.598-41.975 0-23.181-18.626-41.972-41.598-41.972z"  horiz-adv-x="1024" />

    
    <glyph glyph-name="mima" unicode="&#58896;" d="M800 64a32 32 0 0 1 32 32V416a32 32 0 0 1-32 32H224a32 32 0 0 1-32-32v-320a32 32 0 0 1 32-32z m0-64H224a96 96 0 0 0-96 96V416a96 96 0 0 0 96 96h576a96 96 0 0 0 96-96v-320a96 96 0 0 0-96-96zM480 320a32 32 0 0 0 64 0v-128a32 32 0 0 0-64 0zM352 480a32 32 0 0 0-64 0v96a224 224 0 0 0 448 0v-96a32 32 0 0 0-64 0v96a160 160 0 0 1-320 0z"  horiz-adv-x="1024" />

    


  </font>
</defs>
</svg>
